<?xml version="1.0" encoding="UTF-8" standalone="no"?>
<!-- Created with Inkscape (http://www.inkscape.org/) -->

<svg
   width="48"
   height="48"
   viewBox="0 0 12.7 12.7"
   version="1.1"
   id="svg5"
   inkscape:version="1.2.1 (9c6d41e, 2022-07-14)"
   sodipodi:docname="public.svg"
   xml:space="preserve"
   xmlns:inkscape="http://www.inkscape.org/namespaces/inkscape"
   xmlns:sodipodi="http://sodipodi.sourceforge.net/DTD/sodipodi-0.dtd"
   xmlns="http://www.w3.org/2000/svg"
   xmlns:svg="http://www.w3.org/2000/svg"><sodipodi:namedview
     id="namedview7"
     pagecolor="#ffffff"
     bordercolor="#000000"
     borderopacity="0.25"
     inkscape:showpageshadow="2"
     inkscape:pageopacity="0.0"
     inkscape:pagecheckerboard="0"
     inkscape:deskcolor="#d1d1d1"
     inkscape:document-units="mm"
     showgrid="false"
     inkscape:zoom="5.6568542"
     inkscape:cx="8.7504464"
     inkscape:cy="34.825009"
     inkscape:window-width="1920"
     inkscape:window-height="1005"
     inkscape:window-x="0"
     inkscape:window-y="0"
     inkscape:window-maximized="1"
     inkscape:current-layer="layer1"
     showguides="false" /><defs
     id="defs2"><inkscape:path-effect
       effect="spiro"
       id="path-effect4002"
       is_visible="true"
       lpeversion="1" /><inkscape:path-effect
       effect="spiro"
       id="path-effect3996"
       is_visible="true"
       lpeversion="1" /><inkscape:path-effect
       effect="spiro"
       id="path-effect3941"
       is_visible="true"
       lpeversion="1" /><inkscape:path-effect
       effect="spiro"
       id="path-effect3935"
       is_visible="true"
       lpeversion="1" /><inkscape:path-effect
       effect="powerclip"
       id="path-effect2943"
       is_visible="true"
       lpeversion="1"
       inverse="true"
       flatten="false"
       hide_clip="false"
       message="Use fill-rule evenodd on &lt;b&gt;fill and stroke&lt;/b&gt; dialog if no flatten result after convert clip to paths." /><clipPath
       clipPathUnits="userSpaceOnUse"
       id="clipPath2939"><rect
         style="display:block;fill:#d40000;stroke:#37c837;stroke-width:0.134907;stroke-dasharray:none"
         id="rect2941"
         width="133.71562"
         height="73.400787"
         x="82.593124"
         y="100.38998"
         ry="0" /></clipPath><clipPath
       clipPathUnits="userSpaceOnUse"
       id="clipPath2947"><rect
         style="fill:#d40000;stroke:#37c837;stroke-width:0.134907;stroke-dasharray:none"
         id="rect2949"
         width="133.71562"
         height="73.400787"
         x="136.61914"
         y="104.25169"
         ry="0" /></clipPath></defs><g
     inkscape:label="Layer 1"
     inkscape:groupmode="layer"
     id="layer1"><path
       id="path4367"
       style="fill:#034858;fill-opacity:1;stroke-width:0.0204499"
       d="m 6.8790966,0.64618759 c -0.012882,6.479e-5 -0.025775,2.1634e-4 -0.038663,4.9247e-4 -0.4949002,0.0100799 -0.992709,0.16346422 -1.4295363,0.47122624 l -3.671957,2.5870198 c -0.2345491,0.1652487 -0.432613,0.362298 -0.5934067,0.5807057 0.025246,-0.00421 0.050454,-0.00867 0.075729,-0.012701 0.055587,-0.00887 0.1112404,-0.017308 0.1669541,-0.025323 0.055713,-0.00801 0.1114852,-0.015607 0.1673138,-0.022767 0.055828,-0.00716 0.1117444,-0.013905 0.1676729,-0.020211 0.055929,-0.0063 0.1118954,-0.012161 0.1679132,-0.017614 0.056017,-0.00546 0.1120582,-0.010496 0.1681527,-0.015097 0.056093,-0.0046 0.1122365,-0.00875 0.168392,-0.012502 0.056156,-0.00374 0.1123458,-0.00708 0.1685522,-0.00998 0.056206,-0.0029 0.1124278,-0.00537 0.1686719,-0.00743 0.056243,-0.00206 0.1125229,-0.00367 0.1687917,-0.00487 0.056268,-0.0012 0.1125515,-0.00196 0.1688315,-0.00232 0.046899,-2.937e-4 0.093773,-3.323e-4 0.1406729,-4e-5 0.0469,2.937e-4 0.093819,8.758e-4 0.140713,0.00176 0.046893,8.794e-4 0.093755,0.00209 0.140633,0.00355 0.046879,0.00146 0.093776,0.00322 0.140633,0.00527 0.046857,0.00206 0.093686,0.00439 0.1405135,0.00703 0.046828,0.00264 0.093642,0.00556 0.140433,0.00878 0.046791,0.00322 0.093567,0.00674 0.1403135,0.010543 0.046747,0.0038 0.093458,0.0079 0.1401538,0.012302 0.046696,0.00439 0.093357,0.00908 0.1399942,0.014059 0.046636,0.00498 0.093263,0.010258 0.1398342,0.015817 0.046571,0.00556 0.093098,0.011387 0.1395945,0.017534 0.046497,0.00615 0.092979,0.012568 0.1393948,0.019291 0.046416,0.00673 0.092788,0.013745 0.1391155,0.021049 0.046328,0.00731 0.092603,0.01492 0.1388356,0.022807 0.046233,0.00788 0.092426,0.016058 0.1385561,0.024523 0.04613,0.00846 0.092178,0.017195 0.1381967,0.026241 0.046019,0.00905 0.091976,0.018414 0.1378773,0.028039 0.045902,0.00963 0.091781,0.019512 0.1375575,0.029716 0.045776,0.010211 0.091474,0.020691 0.1371181,0.031474 0.045644,0.010781 0.091217,0.021874 0.1367187,0.03323 0.045505,0.011364 0.090924,0.023011 0.1362796,0.034949 0.045357,0.011937 0.090638,0.024151 0.1358402,0.036667 0.045202,0.012513 0.090321,0.025333 0.1353607,0.038424 0.04504,0.013091 0.090012,0.026478 0.1348817,0.040141 0.04487,0.013664 0.089668,0.027578 0.1343623,0.041819 0.044694,0.014241 0.089294,0.028803 0.133803,0.043616 0.04451,0.014814 0.088926,0.029907 0.133244,0.045293 0.044317,0.015387 0.088526,0.03105 0.1326447,0.047011 0.044119,0.015961 0.088134,0.032236 0.1320461,0.048769 0.043909,0.016531 0.087707,0.03334 0.1314064,0.050446 0.043699,0.017107 0.08729,0.034486 0.1307676,0.052163 0.043477,0.017678 0.086839,0.035632 0.1300884,0.053881 0.06168,0.026027 0.1230707,0.052607 0.184169,0.079603 0.061099,0.026995 0.1219121,0.05441 0.1824914,0.082239 0.060579,0.027828 0.1209304,0.056033 0.1810537,0.084556 0.060123,0.028524 0.1200463,0.057392 0.1797753,0.086473 0.119458,0.058162 0.2381784,0.1172931 0.3564356,0.1768598 0.1182572,0.059567 0.2360446,0.1195451 0.3535996,0.1794155 0.1175582,0.059874 0.2348835,0.1196561 0.3522422,0.1787377 0.05972,0.030065 0.1195686,0.059223 0.1793361,0.088868 0.072549,-0.0211 0.145091,-0.042295 0.2176397,-0.064145 C 9.5697528,5.8655958 9.6627,5.8371128 9.7557439,5.8083828 9.9418325,5.7509238 10.128341,5.692509 10.3158,5.6353574 c 0.09373,-0.028577 0.187695,-0.056837 0.281985,-0.084516 0.09428,-0.027677 0.188868,-0.054768 0.283862,-0.081001 0.095,-0.026232 0.190415,-0.05161 0.286259,-0.075849 0.04793,-0.01212 0.09595,-0.023944 0.144108,-0.035467 0.04817,-0.011518 0.09645,-0.022742 0.144867,-0.033589 0.01861,-0.00417 0.03729,-0.008 0.05591,-0.01206 L 8.9949835,1.7391395 C 8.498076,1.0338448 7.7160069,0.65403376 6.9177201,0.64626783 6.9048433,0.64614397 6.8919771,0.64612079 6.8790967,0.64619045 Z M 3.0205344,4.4684031 c -0.036346,-1.607e-4 -0.072692,-1.251e-4 -0.109039,8.05e-5 -0.072694,4.115e-4 -0.1454119,0.00157 -0.218079,0.00344 -0.072667,0.00187 -0.1453093,0.00447 -0.2179196,0.00779 -0.07261,0.00333 -0.1451573,0.00736 -0.2176797,0.012142 -0.072522,0.00478 -0.1449948,0.010294 -0.2174002,0.016536 -0.072405,0.00624 -0.1447827,0.013219 -0.2170406,0.020929 -0.072258,0.00771 -0.1444012,0.016147 -0.2164812,0.025323 -0.072081,0.00918 -0.1440916,0.019108 -0.2159621,0.029756 -0.071873,0.010639 -0.143648,0.022032 -0.2152835,0.034148 -0.071635,0.012116 -0.1431159,0.024955 -0.21448399,0.038544 -0.015888,0.00302 -0.031697,0.00644 -0.047571,0.00955 -0.37696769,0.7614326 -0.36320278,1.686241 0.097297,2.4566254 0.024005,0.00414 0.047922,0.00855 0.072014,0.012303 0.043451,0.00678 0.087051,0.012951 0.1307674,0.018533 0.043717,0.00559 0.087567,0.010567 0.1315267,0.015019 0.043959,0.00446 0.088026,0.00838 0.1322051,0.01178 0.044179,0.00341 0.088468,0.00626 0.1328446,0.00867 0.044377,0.00239 0.088853,0.00435 0.1334038,0.00584 0.04455,0.00147 0.089181,0.0025 0.133883,0.00313 0.044702,6.331e-4 0.089491,8.442e-4 0.1343223,6.683e-4 0.044831,-1.702e-4 0.089705,-7.035e-4 0.1346417,-0.00158 0.044936,-8.793e-4 0.089903,-0.00215 0.1349216,-0.00371 0.090037,-0.00309 0.1802129,-0.00746 0.2704421,-0.01282 0.090229,-0.00535 0.1805237,-0.011708 0.2707617,-0.018771 0.078699,-0.00616 0.1573819,-0.012848 0.2360127,-0.020009 0.078631,-0.00716 0.1572084,-0.014818 0.2357728,-0.022925 0.078565,-0.00811 0.1571111,-0.016644 0.2356133,-0.025641 0.078502,-0.009 0.1569703,-0.018445 0.2354135,-0.028278 0.078444,-0.00983 0.156866,-0.020059 0.235254,-0.030674 0.078388,-0.010615 0.1567577,-0.02161 0.2350941,-0.032952 0.078337,-0.01134 0.1566462,-0.023055 0.2349341,-0.03507 0.078289,-0.012042 0.1565325,-0.024381 0.2347758,-0.037013 0.156487,-0.025264 0.3129001,-0.051681 0.4692294,-0.079084 C 5.3310549,6.8232807 5.4873149,6.7948751 5.6435157,6.7657681 5.7997159,6.73666 5.9558468,6.7068327 6.1119461,6.6764587 6.2680459,6.6460846 6.4241097,6.615197 6.5801373,6.5839957 6.8006598,6.5398949 7.0209465,6.4952282 7.2406853,6.4491937 7.3505552,6.4261775 7.4602968,6.4028237 7.569881,6.3790171 7.6794644,6.3552128 7.7888792,6.3309223 7.8981179,6.3061243 8.0073566,6.2813251 8.1164024,6.255991 8.2252368,6.229996 8.3340701,6.204001 8.4427072,6.1773487 8.551077,6.1499534 8.6271478,6.1307265 8.7029293,6.1106404 8.7787416,6.0906423 8.7111504,6.0563496 8.6434218,6.0221266 8.5760401,5.9878079 8.458446,5.9279108 8.3411121,5.8681029 8.2237583,5.8089113 8.1064015,5.7497157 7.9890171,5.6911217 7.8713968,5.6337287 7.8125869,5.6050322 7.7537064,5.5766537 7.6947364,5.5486136 7.6357687,5.5205773 7.5767103,5.4929012 7.5175175,5.4656563 7.4583248,5.438411 7.3990173,5.4115673 7.3395393,5.3852541 7.2800616,5.3589409 7.2204279,5.3331317 7.1606028,5.3078884 7.0936605,5.2796418 7.0264142,5.2521236 6.9588992,5.2252894 6.891385,5.1984557 6.8235733,5.1723014 6.7555189,5.1468852 6.6874614,5.1214656 6.6191502,5.0967574 6.5505801,5.0727538 6.4820106,5.0487511 6.4131766,5.0254813 6.3441238,5.0028967 6.2750719,4.9803127 6.205815,4.9584368 6.1363097,4.9372735 6.0668049,4.9161099 5.9970651,4.8956643 5.9271374,4.8759237 5.8572096,4.8561835 5.7870872,4.8371227 5.7167669,4.8188076 5.646449,4.8004956 5.5759213,4.7828927 5.5052384,4.7660056 5.4345554,4.7491174 5.3636865,4.7329749 5.2926712,4.7175168 5.2216556,4.7020591 5.1505033,4.6872886 5.0791851,4.6732617 5.0078693,4.6592386 4.9364115,4.6459542 4.8648207,4.6333608 4.7932301,4.6207692 4.7214907,4.6088881 4.6496573,4.5977329 4.5778239,4.5865765 4.5059011,4.5761373 4.4338551,4.5664194 4.3618087,4.5567007 4.289642,4.5476966 4.2174132,4.5394185 4.1451845,4.5311409 4.0728738,4.5235672 4.0004924,4.5167319 3.9281109,4.5098966 3.8556765,4.5037897 3.7831722,4.4983988 c -0.072504,-0.00538 -0.1450829,-0.010032 -0.2176796,-0.01398 -0.072597,-0.00395 -0.1452198,-0.00717 -0.2178791,-0.00966 -0.072659,-0.0025 -0.1453474,-0.00427 -0.2180393,-0.00531 -0.036346,-5.207e-4 -0.072693,-8.794e-4 -0.1090398,-0.00104 z M 11.709629,5.611761 c -0.0141,0.00285 -0.02822,0.00554 -0.04229,0.00846 -0.04592,0.00957 -0.09175,0.019502 -0.137517,0.029756 -0.04677,0.010484 -0.09351,0.021296 -0.140194,0.032471 -0.04668,0.011173 -0.09332,0.022707 -0.139915,0.034507 -0.09319,0.023604 -0.186219,0.048379 -0.279189,0.074091 -0.09296,0.025711 -0.185901,0.052355 -0.278789,0.079643 -0.09289,0.027286 -0.185762,0.055227 -0.27871,0.083556 -0.185896,0.056659 -0.372038,0.1148753 -0.5590178,0.1725063 -0.049893,0.015377 -0.1000336,0.030512 -0.1500592,0.045773 0.027462,0.012771 0.05488,0.025753 0.082399,0.038343 0.059229,0.027097 0.1185728,0.053775 0.1780985,0.079923 0.05953,0.026147 0.1192135,0.051791 0.1790955,0.076847 0.0504,0.021086 0.100975,0.041766 0.151696,0.062069 0.05072,0.020301 0.101585,0.040192 0.152616,0.059712 0.05103,0.019524 0.102243,0.038689 0.153575,0.057435 0.05133,0.018746 0.102795,0.037102 0.154413,0.055079 0.05161,0.017973 0.103367,0.035548 0.155252,0.052763 0.05189,0.017213 0.103902,0.034071 0.15605,0.050525 0.05215,0.016454 0.104413,0.032509 0.156809,0.048209 0.0524,0.015701 0.1049,0.03106 0.157528,0.046012 0.05262,0.014951 0.105364,0.029527 0.158208,0.043735 0.05285,0.014209 0.105803,0.028029 0.158846,0.041499 0.05305,0.013471 0.106208,0.026565 0.159446,0.039302 0.05324,0.012739 0.106588,0.025134 0.160004,0.037145 0.01141,0.00257 0.02275,0.00491 0.03411,0.00743 0.0135,-0.4623533 -0.09747,-0.9320851 -0.342457,-1.3568005 z M 9.2254044,6.3137281 c -0.087735,0.024867 -0.1755099,0.049547 -0.263492,0.073213 -0.1095632,0.029467 -0.2193059,0.058082 -0.3291958,0.085873 -0.1098901,0.027789 -0.2199593,0.054799 -0.3301147,0.081121 -0.1101528,0.026327 -0.2204346,0.051945 -0.3307929,0.077007 -0.1103584,0.02506 -0.2207728,0.049562 -0.3312727,0.073571 -0.1104998,0.024012 -0.2210533,0.047529 -0.3316319,0.070696 -0.2211584,0.046336 -0.4424406,0.091223 -0.6635439,0.1354403 -0.1564376,0.031289 -0.313055,0.062302 -0.4698684,0.092824 -0.1568132,0.030523 -0.3138097,0.060521 -0.4710268,0.089828 -0.1572172,0.029305 -0.3146539,0.057913 -0.4723052,0.085553 -0.1576514,0.027641 -0.3155469,0.054317 -0.4736627,0.079843 -0.079058,0.01276 -0.158151,0.025235 -0.237331,0.037385 -0.07918,0.012148 -0.1584245,0.023987 -0.23773,0.035468 -0.079306,0.011483 -0.1586943,0.022598 -0.2381296,0.033351 -0.079435,0.010757 -0.1589204,0.021145 -0.2384895,0.031113 -0.079568,0.00997 -0.1592215,0.019549 -0.238928,0.028679 -0.079706,0.00913 -0.1594808,0.017804 -0.2393281,0.026041 -0.079846,0.00824 -0.1597749,0.016003 -0.2397672,0.023287 -0.079993,0.00729 -0.1600655,0.014093 -0.2402065,0.020371 -0.091967,0.0072 -0.184328,0.01371 -0.2769921,0.019253 -0.092664,0.00554 -0.1856214,0.010116 -0.2787898,0.01338 -0.046584,0.00162 -0.093239,0.00296 -0.1399142,0.00391 -0.046674,9.497e-4 -0.093374,0.00151 -0.1401137,0.00172 -0.046741,1.931e-4 -0.09353,7.7e-6 -0.1403139,-6.331e-4 -0.046782,-6.331e-4 -0.093552,-0.00176 -0.1403532,-0.0033 -0.046801,-0.00155 -0.093598,-0.0036 -0.1403935,-0.00616 -0.046796,-0.00257 -0.093588,-0.00561 -0.1403536,-0.00922 -0.046766,-0.00361 -0.093522,-0.00781 -0.1402335,-0.012581 -0.01608,-0.00165 -0.032137,-0.00377 -0.048209,-0.00555 l 2.4417667,3.4657837 c 0.583129,0.827675 1.5589295,1.206972 2.4928519,1.062915 -0.00172,-0.0046 -0.00371,-0.009 -0.0054,-0.01366 -0.012633,-0.03447 -0.024457,-0.0693 -0.035428,-0.104508 -0.010971,-0.03521 -0.021094,-0.0708 -0.030355,-0.106719 -0.00926,-0.03592 -0.01766,-0.07218 -0.025163,-0.108763 -0.0075,-0.03659 -0.014112,-0.07351 -0.01981,-0.110713 -0.00569,-0.03721 -0.010496,-0.0747 -0.014339,-0.112471 -0.00385,-0.03778 -0.00676,-0.07585 -0.00871,-0.114148 -0.00195,-0.03831 -0.00291,-0.07685 -0.00291,-0.115634 0,-0.03879 9.672e-4,-0.07736 0.00291,-0.115669 0.00195,-0.03831 0.00486,-0.07634 0.00871,-0.114113 0.00385,-0.03777 0.00864,-0.0753 0.014339,-0.112514 0.00569,-0.03721 0.012308,-0.07413 0.01981,-0.110718 0.0075,-0.03659 0.015902,-0.07288 0.025163,-0.1088 0.00926,-0.03592 0.019385,-0.07147 0.030355,-0.106683 0.010971,-0.03521 0.022795,-0.07008 0.035428,-0.104525 0.012633,-0.03445 0.026091,-0.06849 0.040341,-0.10213 0.014248,-0.03364 0.029278,-0.06687 0.045093,-0.09965 0.015815,-0.03278 0.03239,-0.06514 0.049727,-0.09702 0.017337,-0.03188 0.035431,-0.06329 0.05424,-0.09422 0.018809,-0.03093 0.03836,-0.06137 0.058594,-0.091306 0.020235,-0.029932 0.041135,-0.059344 0.062747,-0.08823 0.021612,-0.028887 0.043919,-0.057242 0.066861,-0.085034 0.022943,-0.027792 0.04655,-0.055028 0.070776,-0.081681 0.024225,-0.026654 0.049068,-0.052741 0.074531,-0.078205 0.025461,-0.025465 0.051515,-0.050303 0.078164,-0.074531 0.026649,-0.02423 0.05389,-0.047831 0.081681,-0.070776 0.02779,-0.022946 0.056153,-0.045244 0.085036,-0.06686 0.028884,-0.021617 0.058301,-0.04255 0.088214,-0.062812 0.029929,-0.020235 0.060376,-0.039786 0.091308,-0.058591 0.030928,-0.018809 0.062345,-0.036899 0.094221,-0.05424 0.03188,-0.017337 0.064235,-0.033909 0.097017,-0.049727 0.032783,-0.015816 0.065973,-0.030884 0.099613,-0.045134 0.033637,-0.014252 0.067722,-0.027705 0.1021697,-0.04034 0.034448,-0.012634 0.069277,-0.024456 0.1044864,-0.035428 0.035208,-0.010972 0.070799,-0.021093 0.1067234,-0.030354 0.035922,-0.00926 0.07217,-0.01766 0.1087597,-0.025162 0.03659,-0.0075 0.073509,-0.014111 0.1107174,-0.019809 0.037209,-0.00571 0.074734,-0.010496 0.1125146,-0.01434 0.037781,-0.00385 0.075807,-0.00676 0.1141122,-0.0087 0.038305,-0.00194 0.076889,-0.00292 0.1156694,-0.00292 0.038782,4e-7 0.077325,9.848e-4 0.1156302,0.00292 0.038305,0.00194 0.076371,0.00486 0.1141526,0.00871 0.037781,0.00385 0.075264,0.00864 0.1124743,0.01434 0.037209,0.00571 0.074127,0.012306 0.1107173,0.019813 0.036591,0.0075 0.072876,0.015901 0.1088001,0.025162 0.035925,0.00926 0.071473,0.019384 0.1066831,0.030354 0.035211,0.010971 0.070077,0.022792 0.1045256,0.035428 0.034451,0.012634 0.068489,0.02609 0.1021304,0.040341 0.033642,0.014252 0.066869,0.029316 0.099653,0.045134 0.032783,0.01582 0.065136,0.03239 0.097017,0.049727 0.03188,0.01734 0.063292,0.035429 0.094221,0.05424 0.03093,0.018809 0.061373,0.038357 0.091306,0.058594 0.029932,0.020238 0.059383,0.041173 0.088271,0.062788 0.028883,0.021614 0.057202,0.043916 0.084995,0.066861 0.027793,0.022946 0.055027,0.046547 0.081679,0.070776 0.026654,0.024226 0.052741,0.049066 0.078205,0.074531 0.019211,0.019211 0.037726,0.039102 0.056237,0.058992 l 1.0086,-0.7106165 c 0.59131,-0.4166012 0.953261,-1.0336504 1.05944,-1.6925894 -0.02512,-0.00548 -0.05028,-0.010781 -0.07537,-0.016414 -0.05489,-0.012342 -0.109714,-0.02505 -0.164438,-0.038143 -0.05473,-0.013094 -0.10937,-0.026569 -0.163919,-0.040421 -0.05455,-0.01385 -0.109001,-0.028081 -0.16336,-0.042697 -0.05436,-0.014614 -0.108609,-0.029591 -0.16276,-0.044973 -0.05414,-0.015384 -0.108157,-0.031169 -0.162082,-0.04733 -0.05392,-0.016158 -0.107753,-0.032703 -0.161442,-0.049647 -0.05369,-0.016942 -0.107242,-0.034275 -0.160684,-0.052003 -0.05344,-0.01773 -0.10679,-0.035876 -0.159965,-0.054399 -0.05317,-0.018527 -0.106216,-0.037436 -0.159121,-0.056759 -0.0529,-0.019324 -0.10567,-0.039065 -0.158287,-0.059193 -0.05261,-0.020125 -0.105054,-0.04065 -0.157368,-0.061589 -0.05231,-0.020941 -0.104491,-0.042269 -0.15649,-0.064026 C 9.9531315,6.6491381 9.8916456,6.622745 9.8304604,6.5959024 9.7692745,6.5690591 9.7083855,6.5417614 9.6477289,6.5140625 9.5870755,6.486368 9.5266656,6.4582445 9.466476,6.4298266 9.4062858,6.4014077 9.3463268,6.3726729 9.2865404,6.3436728 9.266102,6.3337579 9.2457866,6.3236881 9.2253907,6.3137168 Z M 8.3054781,9.2731337 c -0.033952,-3e-7 -0.067728,8.442e-4 -0.1012508,0.00257 -0.033523,0.00169 -0.066798,0.00424 -0.099853,0.0076 -0.033055,0.00334 -0.065871,0.0075 -0.098416,0.012462 -0.032545,0.00496 -0.064824,0.010686 -0.096817,0.017213 -0.031994,0.00653 -0.063697,0.013868 -0.095099,0.02193 -0.031402,0.00806 -0.062493,0.016851 -0.093263,0.0264 -0.03077,0.00955 -0.061249,0.019833 -0.091346,0.030835 -0.030097,0.010995 -0.059846,0.022743 -0.089229,0.035148 -0.029381,0.012408 -0.058404,0.025489 -0.087032,0.039263 -0.028627,0.013777 -0.056843,0.028236 -0.084676,0.043336 -0.027834,0.0151 -0.055283,0.030864 -0.082279,0.047251 -0.026998,0.016383 -0.053566,0.033371 -0.079682,0.051006 -0.026113,0.017642 -0.051757,0.035898 -0.076977,0.054706 -0.025202,0.018834 -0.049929,0.038278 -0.074173,0.058271 -0.024241,0.019999 -0.048013,0.040549 -0.071255,0.061669 -0.023242,0.02112 -0.045979,0.042783 -0.06818,0.064985 -0.022201,0.022204 -0.043864,0.044938 -0.064983,0.068181 -0.021121,0.023238 -0.041671,0.047013 -0.061669,0.071255 -0.019998,0.024241 -0.03944,0.04897 -0.058275,0.074171 -0.018834,0.0252 -0.037089,0.05085 -0.054719,0.07697 -0.01763,0.02612 -0.034619,0.05269 -0.051005,0.07968 -0.016386,0.027 -0.03215,0.05445 -0.047251,0.08228 -0.015101,0.02783 -0.029561,0.05605 -0.043337,0.08468 -0.013774,0.02863 -0.026854,0.05765 -0.039263,0.08703 -0.012407,0.02938 -0.024149,0.05913 -0.035149,0.08923 -0.010995,0.0301 -0.021284,0.06058 -0.030834,0.09135 -0.00955,0.03077 -0.01834,0.06186 -0.026401,0.09326 -0.00806,0.0314 -0.015398,0.06311 -0.021929,0.0951 -0.00653,0.03199 -0.012255,0.06427 -0.017214,0.09682 -0.00496,0.03254 -0.00912,0.06536 -0.012462,0.09842 -0.00335,0.03306 -0.0059,0.06633 -0.00758,0.09985 -0.00169,0.03352 -0.00256,0.0673 -0.00256,0.101251 2e-7,0.03395 8.617e-4,0.06768 0.00256,0.101215 0.0017,0.03352 0.00424,0.0668 0.00758,0.09985 0.00334,0.03306 0.0075,0.06586 0.012462,0.09841 0.00496,0.03255 0.010686,0.06482 0.017214,0.09682 0.00653,0.03199 0.013867,0.0637 0.021927,0.09509 0.00806,0.0314 0.016851,0.06253 0.026402,0.0933 0.00955,0.03078 0.019835,0.06121 0.030835,0.0913 0.00623,0.01706 0.013242,0.03373 0.01993,0.05057 0.141378,-0.03855 0.2807156,-0.08961 0.4164673,-0.153455 -0.00454,-0.01556 -0.00927,-0.03105 -0.01334,-0.04681 -0.00643,-0.02495 -0.01228,-0.05013 -0.017494,-0.07553 -0.00522,-0.0254 -0.00982,-0.05105 -0.01378,-0.07688 -0.00396,-0.02583 -0.00727,-0.05186 -0.00995,-0.07808 -0.00267,-0.02622 -0.00468,-0.05266 -0.00603,-0.07925 -0.00136,-0.02659 -0.00203,-0.05336 -0.00203,-0.08028 0,-0.02691 6.789e-4,-0.05366 0.00203,-0.08024 0.00136,-0.02659 0.00336,-0.05302 0.00603,-0.07925 0.00267,-0.02622 0.00598,-0.05225 0.00995,-0.07808 0.00396,-0.02583 0.00857,-0.05148 0.01378,-0.07688 0.00522,-0.0254 0.011055,-0.05059 0.017495,-0.07553 0.00643,-0.02494 0.013465,-0.04964 0.021089,-0.07409 0.00762,-0.02445 0.015825,-0.04865 0.024604,-0.07257 0.00878,-0.02392 0.018138,-0.04758 0.028038,-0.07094 0.0099,-0.02336 0.020363,-0.04645 0.031355,-0.06922 0.010995,-0.02277 0.022503,-0.0452 0.034549,-0.06734 0.012046,-0.02214 0.024636,-0.04398 0.037705,-0.06546 0.013069,-0.02148 0.026642,-0.04264 0.0407,-0.06343 0.014058,-0.02079 0.0286,-0.04121 0.043616,-0.06127 0.015015,-0.02007 0.030473,-0.03977 0.046412,-0.05907 0.01594,-0.01931 0.032338,-0.03824 0.049167,-0.05676 0.01683,-0.01852 0.034116,-0.03663 0.051803,-0.05432 0.017687,-0.01769 0.035807,-0.03493 0.05432,-0.05176 0.018512,-0.01683 0.03741,-0.03327 0.056717,-0.04921 0.019303,-0.01594 0.039012,-0.03139 0.059072,-0.04641 0.020078,-0.015 0.040479,-0.0296 0.061277,-0.04365 0.02078,-0.01407 0.041943,-0.02763 0.063429,-0.0407 0.02148,-0.01307 0.043283,-0.02562 0.065422,-0.037668 0.022143,-0.012046 0.044615,-0.023597 0.067381,-0.034588 0.022767,-0.010995 0.045817,-0.021452 0.069178,-0.031352 0.023358,-0.0099 0.047015,-0.019257 0.070936,-0.02804 0.023922,-0.00878 0.048124,-0.016978 0.072573,-0.024603 0.024449,-0.00762 0.049148,-0.014653 0.074091,-0.021089 0.024943,-0.00643 0.050125,-0.012279 0.075529,-0.017495 0.025404,-0.00522 0.051014,-0.00982 0.076847,-0.01378 0.025832,-0.00396 0.051897,-0.00727 0.078125,-0.00995 0.026227,-0.00267 0.052614,-0.00472 0.079203,-0.00607 0.026589,-0.00133 0.053363,-0.00204 0.080281,-0.00204 0.026917,3e-7 0.053692,6.683e-4 0.080283,0.00204 0.026589,0.00133 0.053016,0.00341 0.079243,0.00607 0.026228,0.00267 0.052253,0.00598 0.078085,0.00994 0.025833,0.00396 0.051443,0.00857 0.076847,0.01378 0.025404,0.00522 0.050586,0.011055 0.075529,0.017495 0.024944,0.00643 0.049642,0.013464 0.074091,0.021089 0.024449,0.00762 0.048652,0.015824 0.072573,0.024607 0.023921,0.00878 0.047575,0.018134 0.070936,0.02804 0.023361,0.0099 0.046451,0.020361 0.069217,0.031352 0.022767,0.010995 0.0452,0.022542 0.067341,0.034588 0.022141,0.012049 0.043983,0.024596 0.065464,0.037665 0.021479,0.01307 0.042598,0.02664 0.063387,0.0407 0.020786,0.01406 0.041247,0.02864 0.06131,0.04366 0.00492,0.0037 0.00962,0.0076 0.014498,0.01139 L 9.7173173,9.8712186 c -0.00751,-0.00776 -0.01473,-0.015807 -0.022366,-0.023445 -0.022201,-0.022201 -0.044938,-0.043864 -0.06818,-0.064984 -0.023242,-0.02112 -0.047013,-0.041671 -0.071255,-0.061669 -0.024244,-0.019999 -0.048971,-0.039439 -0.07417,-0.058275 -0.025201,-0.018834 -0.050848,-0.037089 -0.076968,-0.054719 -0.026119,-0.017632 -0.052686,-0.03462 -0.079682,-0.051005 -0.026998,-0.016387 -0.054446,-0.032151 -0.082278,-0.047251 -0.027832,-0.0151 -0.056047,-0.029562 -0.084675,-0.043337 -0.02863,-0.013773 -0.057649,-0.026853 -0.087032,-0.039262 -0.029383,-0.012408 -0.059131,-0.024149 -0.089229,-0.035148 -0.030097,-0.010995 -0.060535,-0.021283 -0.091305,-0.030835 -0.030769,-0.00956 -0.061901,-0.018342 -0.093303,-0.0264 -0.031401,-0.00806 -0.063106,-0.015398 -0.095101,-0.021926 -0.031997,-0.00653 -0.064274,-0.012258 -0.096817,-0.017213 -0.032545,-0.00496 -0.065361,-0.00912 -0.098415,-0.012461 -0.033055,-0.00334 -0.066329,-0.0059 -0.099853,-0.0076 -0.033523,-0.00169 -0.067261,-0.00257 -0.1012116,-0.00257 z m 0.091305,0.8236273 c -0.022089,0 -0.044056,5.63e-4 -0.065863,0.0017 -0.021809,0.0011 -0.043444,0.0027 -0.064944,0.0049 -0.021502,0.0022 -0.042859,0.0049 -0.064027,0.0081 -0.021168,0.0032 -0.042139,0.0069 -0.062947,0.01118 -0.020808,0.0042 -0.041448,0.009 -0.061869,0.01422 -0.020421,0.0052 -0.040622,0.01097 -0.06063,0.01717 -0.020009,0.0062 -0.039823,0.01287 -0.059393,0.02001 -0.019571,0.0071 -0.03893,0.01475 -0.058034,0.02281 -0.019103,0.0081 -0.037945,0.01657 -0.056557,0.02552 -0.01861,0.0089 -0.036983,0.01835 -0.055079,0.02816 -0.018095,0.0098 -0.035931,0.02003 -0.053482,0.03067 -0.017551,0.01064 -0.034785,0.02174 -0.051765,0.03319 -0.016962,0.01148 -0.033651,0.02333 -0.050049,0.03554 -0.016396,0.01222 -0.032453,0.02483 -0.04821,0.03782 -0.015757,0.01299 -0.031226,0.02638 -0.046331,0.0401 -0.015104,0.01372 -0.029865,0.02779 -0.044295,0.04222 -0.014427,0.01443 -0.028495,0.02923 -0.042218,0.04434 -0.013724,0.01511 -0.027106,0.03054 -0.040101,0.04629 -0.012994,0.01575 -0.025626,0.03183 -0.037864,0.04821 -0.012236,0.01638 -0.024092,0.03307 -0.035547,0.05005 -0.011459,0.01698 -0.022505,0.03425 -0.033152,0.0518 -0.01065,0.01755 -0.020865,0.03535 -0.030675,0.05344 -0.00981,0.01809 -0.01921,0.03647 -0.028158,0.05508 -0.00895,0.01861 -0.017463,0.03749 -0.025523,0.0566 -0.00806,0.01911 -0.015662,0.03843 -0.022806,0.058 -0.00714,0.01957 -0.013808,0.03938 -0.020011,0.05939 -0.0062,0.02001 -0.011939,0.04021 -0.017175,0.06063 -0.00523,0.02042 -0.00997,0.04106 -0.014219,0.06187 -0.00424,0.0208 -0.008,0.04178 -0.011221,0.06295 -0.00322,0.02117 -0.0059,0.04253 -0.00807,0.06402 -0.00218,0.0215 -0.00385,0.04317 -0.00496,0.06499 -0.0011,0.02181 -0.00164,0.04373 -0.00164,0.06583 10e-8,0.02209 5.415e-4,0.04405 0.00164,0.06586 0.0011,0.02181 0.00278,0.04348 0.00496,0.06498 0.00218,0.0215 0.00485,0.04282 0.00807,0.06399 0.00322,0.02117 0.00698,0.04217 0.011221,0.06299 0.00267,0.01315 0.00591,0.0261 0.00899,0.03911 0.045203,-0.0279 0.089891,-0.05725 0.1339208,-0.08827 l 0.3187727,-0.2246 a 0.90491862,0.90491862 0 0 1 0.0042,-0.03715 0.90491862,0.90491862 0 0 1 0.012581,-0.06646 0.90491862,0.90491862 0 0 1 0.017535,-0.06539 0.90491862,0.90491862 0 0 1 0.022327,-0.06387 0.90491862,0.90491862 0 0 1 0.02708,-0.06202 0.90491862,0.90491862 0 0 1 0.031594,-0.05984 0.90491862,0.90491862 0 0 1 0.036027,-0.05731 0.90491862,0.90491862 0 0 1 0.040181,-0.05444 0.90491862,0.90491862 0 0 1 0.044135,-0.05128 0.90491862,0.90491862 0 0 1 0.04785,-0.04785 0.90491862,0.90491862 0 0 1 0.051286,-0.04413 0.90491862,0.90491862 0 0 1 0.05448,-0.04018 0.90491862,0.90491862 0 0 1 0.057277,-0.03602 0.90491862,0.90491862 0 0 1 0.059832,-0.03159 0.90491862,0.90491862 0 0 1 0.062028,-0.02708 0.90491862,0.90491862 0 0 1 0.063866,-0.02237 0.90491862,0.90491862 0 0 1 0.065384,-0.01749 0.90491862,0.90491862 0 0 1 0.066462,-0.01258 0.90491862,0.90491862 0 0 1 0.067261,-0.0076 0.90491862,0.90491862 0 0 1 0.067621,-0.0025 0.90491862,0.90491862 0 0 1 0.022925,2.79e-4 0.90491862,0.90491862 0 0 1 0.022925,8.79e-4 0.90491862,0.90491862 0 0 1 0.022887,0.0014 0.90491862,0.90491862 0 0 1 0.022806,0.002 0.90491862,0.90491862 0 0 1 0.022806,0.0026 0.90491862,0.90491862 0 0 1 0.022686,0.0032 0.90491862,0.90491862 0 0 1 0.022605,0.0038 0.90491862,0.90491862 0 0 1 0.022528,0.0043 0.90491862,0.90491862 0 0 1 0.022408,0.0049 0.90491862,0.90491862 0 0 1 0.00659,0.0017 l 0.3816007,-0.268844 c -0.013116,-0.0086 -0.026253,-0.01728 -0.039702,-0.02544 -0.017551,-0.01065 -0.035388,-0.02086 -0.053482,-0.03068 -0.018093,-0.0098 -0.036427,-0.01921 -0.055039,-0.02816 -0.018613,-0.0089 -0.037493,-0.01746 -0.056597,-0.02552 -0.019106,-0.0081 -0.038464,-0.01566 -0.058034,-0.02281 -0.019569,-0.0071 -0.039344,-0.01381 -0.059353,-0.02001 -0.020009,-0.0062 -0.040249,-0.01194 -0.060671,-0.01717 -0.020421,-0.0052 -0.041021,-0.01 -0.061829,-0.01422 -0.020808,-0.0042 -0.04182,-0.008 -0.062988,-0.01118 -0.021167,-0.0032 -0.042484,-0.0059 -0.063986,-0.0081 -0.021501,-0.0022 -0.043176,-0.0038 -0.064984,-0.0049 -0.02181,-0.0011 -0.043775,-0.0017 -0.065863,-0.0017 z" /></g></svg>
